<svg width="88" height="89" viewBox="0 0 88 89" fill="none" xmlns="http://www.w3.org/2000/svg">
<circle cx="44" cy="44.0244" r="44" fill="#292930"/>
<path d="M31.5739 62.6622H58.2M49.3246 39.5863C49.3246 42.5274 46.9404 44.9115 43.9994 44.9115C41.0584 44.9115 38.6742 42.5274 38.6742 39.5863C38.6742 36.6453 41.0584 34.2611 43.9994 34.2611C46.9404 34.2611 49.3246 36.6453 49.3246 39.5863ZM58.2 39.7229C58.2 52.6263 43.9994 62.6622 43.9994 62.6622C43.9994 62.6622 29.7988 52.6263 29.7988 39.7229C29.7988 35.9204 31.295 32.2737 33.9581 29.585C36.6212 26.8963 40.2332 25.3857 43.9994 25.3857C47.7656 25.3857 51.3776 26.8963 54.0407 29.585C56.7038 32.2737 58.2 35.9204 58.2 39.7229Z" stroke="#8A8A8A" stroke-width="2.2" stroke-linecap="round" stroke-linejoin="round"/>
</svg>
