<svg width="88" height="89" viewBox="0 0 88 89" fill="none" xmlns="http://www.w3.org/2000/svg">
<circle cx="44" cy="44.0244" r="44" fill="#F96A4B"/>
<path d="M51.5986 39.8793L41.4627 49.549L36.4034 44.7141M31.3095 56.7149C29.7209 55.1263 30.7742 51.7937 29.9626 49.8425C29.1511 47.8913 26.043 46.1819 26.043 44.0234C26.043 41.865 29.1166 40.2246 29.9626 38.2044C30.8087 36.1841 29.7209 32.9206 31.3095 31.332C32.8981 29.7434 36.2307 30.7967 38.1819 29.9851C40.1331 29.1735 41.8426 26.0654 44.001 26.0654C46.1594 26.0654 47.7998 29.139 49.8201 29.9851C51.8403 30.8312 55.1039 29.7434 56.6925 31.332C58.281 32.9206 57.2277 36.2531 58.0393 38.2044C58.8509 40.1556 61.959 41.865 61.959 44.0234C61.959 46.1819 58.8854 47.8222 58.0393 49.8425C57.1932 51.8628 58.281 55.1263 56.6925 56.7149C55.1039 58.3035 51.7713 57.2502 49.8201 58.0618C47.8689 58.8733 46.1594 61.9814 44.001 61.9814C41.8426 61.9814 40.2022 58.9079 38.1819 58.0618C36.1616 57.2157 32.8981 58.3035 31.3095 56.7149Z" stroke="#A72D13" stroke-width="2.2" stroke-linecap="round" stroke-linejoin="round"/>
</svg>
