<svg width="28" height="27" viewBox="0 0 28 27" fill="none" xmlns="http://www.w3.org/2000/svg">
<rect x="0.486328" width="26.9717" height="26.9717" rx="13.4859" fill="url(#paint0_linear_4_3206)"/>
<path d="M13.9744 6.85282C16.1365 6.85282 16.3903 6.86246 17.2449 6.90101C18.0352 6.93635 18.4625 7.06806 18.7484 7.1805C19.1275 7.32829 19.3973 7.50177 19.6801 7.78448C19.9628 8.06719 20.1395 8.33705 20.284 8.71614C20.3933 9.00206 20.5282 9.42934 20.5635 10.2196C20.6021 11.0742 20.6117 11.328 20.6117 13.4901C20.6117 15.6522 20.6021 15.906 20.5635 16.7605C20.5282 17.5508 20.3965 17.9781 20.284 18.2641C20.1362 18.6431 19.9628 18.913 19.6801 19.1957C19.3973 19.4784 19.1275 19.6551 18.7484 19.7997C18.4625 19.9089 18.0352 20.0438 17.2449 20.0792C16.3903 20.1177 16.1365 20.1274 13.9744 20.1274C11.8123 20.1274 11.5585 20.1177 10.704 20.0792C9.91368 20.0438 9.4864 19.9121 9.20048 19.7997C8.82139 19.6519 8.55153 19.4784 8.26882 19.1957C7.9861 18.913 7.80941 18.6431 7.66484 18.2641C7.55561 17.9781 7.42068 17.5508 7.38534 16.7605C7.34679 15.906 7.33715 15.6522 7.33715 13.4901C7.33715 11.328 7.34679 11.0742 7.38534 10.2196C7.42068 9.42934 7.5524 9.00206 7.66484 8.71614C7.81262 8.33705 7.9861 8.06719 8.26882 7.78448C8.55153 7.50177 8.82139 7.32507 9.20048 7.1805C9.4864 7.07128 9.91368 6.93635 10.704 6.90101C11.5585 6.85924 11.8156 6.85282 13.9744 6.85282ZM13.9744 5.39429C11.777 5.39429 11.5007 5.40392 10.6365 5.44248C9.77554 5.48103 9.18763 5.61917 8.67361 5.81835C8.14031 6.02396 7.69054 6.30346 7.24078 6.75323C6.79101 7.20299 6.51472 7.65597 6.3059 8.18606C6.10672 8.70007 5.96858 9.28798 5.93003 10.1522C5.89147 11.0132 5.88184 11.2894 5.88184 13.4869C5.88184 15.6843 5.89147 15.9606 5.93003 16.8248C5.96858 17.6858 6.10672 18.2737 6.3059 18.7909C6.51151 19.3242 6.79101 19.774 7.24078 20.2237C7.69054 20.6735 8.14352 20.9498 8.67361 21.1586C9.18763 21.3578 9.77554 21.4959 10.6397 21.5345C11.5039 21.5731 11.777 21.5827 13.9776 21.5827C16.1783 21.5827 16.4514 21.5731 17.3156 21.5345C18.1765 21.4959 18.7645 21.3578 19.2817 21.1586C19.815 20.953 20.2648 20.6735 20.7145 20.2237C21.1643 19.774 21.4406 19.321 21.6494 18.7909C21.8486 18.2769 21.9867 17.689 22.0253 16.8248C22.0638 15.9606 22.0735 15.6875 22.0735 13.4869C22.0735 11.2862 22.0638 11.0132 22.0253 10.149C21.9867 9.28798 21.8486 8.70008 21.6494 8.18284C21.4438 7.64955 21.1643 7.19978 20.7145 6.75001C20.2648 6.30025 19.8118 6.02396 19.2817 5.81514C18.7677 5.61596 18.1798 5.47782 17.3156 5.43926C16.4482 5.40392 16.1719 5.39429 13.9744 5.39429Z" fill="white"/>
<path d="M13.9745 9.33301C11.6807 9.33301 9.81738 11.1931 9.81738 13.4901C9.81738 15.7872 11.6775 17.6473 13.9745 17.6473C16.2715 17.6473 18.1316 15.7872 18.1316 13.4901C18.1316 11.1931 16.2715 9.33301 13.9745 9.33301ZM13.9745 16.1855C12.4839 16.1855 11.2759 14.9776 11.2759 13.4869C11.2759 11.9963 12.4839 10.7883 13.9745 10.7883C15.4652 10.7883 16.6731 11.9963 16.6731 13.4869C16.6731 14.9776 15.4652 16.1855 13.9745 16.1855Z" fill="white"/>
<path d="M18.2954 10.1362C18.8312 10.1362 19.2656 9.70185 19.2656 9.16601C19.2656 8.63018 18.8312 8.1958 18.2954 8.1958C17.7596 8.1958 17.3252 8.63018 17.3252 9.16601C17.3252 9.70185 17.7596 10.1362 18.2954 10.1362Z" fill="white"/>
<defs>
<linearGradient id="paint0_linear_4_3206" x1="13.9722" y1="0" x2="13.9722" y2="26.9717" gradientUnits="userSpaceOnUse">
<stop stop-color="#F9D801"/>
<stop offset="0.484375" stop-color="#EE0B1F"/>
<stop offset="1" stop-color="#7A39AD"/>
</linearGradient>
</defs>
</svg>
