<svg width="28" height="27" viewBox="0 0 28 27" fill="none" xmlns="http://www.w3.org/2000/svg">
<rect x="0.514648" width="26.9717" height="26.9717" rx="13.4859" fill="#1D9BF0"/>
<path d="M11.533 20.5997C17.514 20.5997 20.7843 15.6437 20.7843 11.3484C20.7843 11.2068 20.7843 11.0652 20.7776 10.9303C21.4114 10.4718 21.9643 9.89867 22.4026 9.24461C21.8227 9.50084 21.1956 9.67615 20.5348 9.75707C21.2091 9.35249 21.7216 8.71866 21.9643 7.95671C21.3372 8.32757 20.6427 8.59728 19.901 8.74563C19.3076 8.11179 18.4648 7.7207 17.5275 7.7207C15.7339 7.7207 14.2774 9.17718 14.2774 10.9708C14.2774 11.227 14.3044 11.4765 14.3651 11.7125C11.6611 11.5777 9.26739 10.283 7.66258 8.31408C7.38611 8.79283 7.22428 9.35249 7.22428 9.94587C7.22428 11.0719 7.79743 12.0699 8.67402 12.6498C8.14132 12.6363 7.64235 12.488 7.20406 12.2452C7.20406 12.2587 7.20406 12.2722 7.20406 12.2857C7.20406 13.8635 8.32338 15.1716 9.81357 15.4751C9.54385 15.5493 9.25391 15.5897 8.95722 15.5897C8.74819 15.5897 8.5459 15.5695 8.34361 15.529C8.75493 16.8237 9.95517 17.7609 11.3779 17.7879C10.2653 18.6577 8.86282 19.177 7.33891 19.177C7.07594 19.177 6.81971 19.1635 6.56348 19.1298C7.98624 20.0603 9.69894 20.5997 11.533 20.5997Z" fill="white"/>
</svg>
